<?xml version="1.0" encoding="UTF-8"?>
<svg xmlns="http://www.w3.org/2000/svg" xmlns:xlink="http://www.w3.org/1999/xlink" width="114px" height="50px" viewBox="0 0 113 50" version="1.1">
<g id="surface1">
<path style=" stroke:none;fill-rule:nonzero;fill:rgb(100%,100%,100%);fill-opacity:1;" d="M 9.722656 0.0195312 L 8.257812 6.207031 L 19.175781 6.210938 L 21.738281 6.210938 C 28.757812 6.210938 33.046875 9.046875 31.855469 14.085938 C 30.558594 19.570312 24.421875 21.957031 17.902344 21.957031 L 15.453125 21.957031 L 18.632812 8.5 L 7.714844 8.5 L 3.066406 28.152344 L 18.554688 28.152344 C 30.199219 28.152344 41.269531 21.976562 43.21875 14.085938 C 43.574219 12.636719 43.527344 9.015625 42.644531 6.859375 C 42.625 6.773438 42.601562 6.710938 42.519531 6.539062 C 42.488281 6.46875 42.460938 6.148438 42.640625 6.078125 C 42.742188 6.039062 42.929688 6.238281 42.957031 6.296875 C 43.046875 6.539062 43.117188 6.714844 43.117188 6.714844 L 52.96875 34.667969 L 78.054688 6.222656 L 88.683594 6.210938 L 91.246094 6.210938 C 98.265625 6.210938 102.589844 9.046875 101.398438 14.085938 C 100.101562 19.570312 93.929688 21.957031 87.410156 21.957031 L 84.960938 21.957031 L 88.140625 8.5 L 77.222656 8.5 L 72.574219 28.152344 L 88.0625 28.152344 C 99.707031 28.152344 110.855469 21.992188 112.726562 14.082031 C 114.597656 6.171875 106.414062 0.015625 94.714844 0.015625 L 71.613281 0.015625 C 71.613281 0.015625 65.492188 7.296875 64.355469 8.671875 C 58.257812 16.050781 57.175781 18.027344 56.992188 18.539062 C 57.019531 18.023438 56.800781 16.027344 54.199219 8.566406 C 53.507812 6.582031 51.277344 0.015625 51.277344 0.015625 L 9.71875 0.015625 Z M 53.363281 34.785156 C 23.890625 34.785156 0 38.1875 0 42.382812 C 0 46.578125 23.890625 49.980469 53.363281 49.980469 C 82.835938 49.980469 106.726562 46.578125 106.726562 42.382812 C 106.726562 38.1875 82.835938 34.785156 53.363281 34.785156 Z M 51.433594 40 C 58.164062 40 63.617188 41.136719 63.617188 42.535156 C 63.617188 43.933594 58.160156 45.066406 51.433594 45.066406 C 44.703125 45.066406 39.246094 43.933594 39.246094 42.535156 C 39.246094 41.136719 44.703125 40 51.433594 40 Z M 51.433594 40 "/>
</g>
</svg>
